<svg width="46" height="24" viewBox="0 0 46 24" fill="none" xmlns="http://www.w3.org/2000/svg">
<path fill-rule="evenodd" clip-rule="evenodd" d="M42.2458 5.35477C41.7504 5.35477 41.2809 5.46801 40.862 5.6699C40.7575 3.99982 39.3664 2.67298 37.6705 2.67298C37.1742 2.67298 36.704 2.78659 36.2844 2.98921C36.1653 1.33333 34.7809 0.0221558 33.0953 0.0221558C31.3317 0.0221558 29.8969 1.45695 29.8969 3.22061V8.52232C29.8969 9.02532 30.3047 9.43311 30.8076 9.43311C31.3106 9.43311 31.7184 9.02532 31.7184 8.52232V3.22061C31.7184 2.46137 32.3361 1.84374 33.0953 1.84374C33.8545 1.84374 34.4721 2.46137 34.4721 3.22061V17.8091V20.4599C34.4721 21.2192 33.8545 21.8368 33.0953 21.8368C32.3361 21.8368 31.7184 21.2192 31.7184 20.4599V15.1582C31.7184 14.6552 31.3106 14.2474 30.8076 14.2474H18.5233C18.0203 14.2474 17.6125 14.6552 17.6125 15.1582C17.6125 15.6612 18.0203 16.069 18.5233 16.069H29.8969V20.4599C29.8969 22.2236 31.3317 23.6584 33.0953 23.6584C34.781 23.6584 36.1654 22.3472 36.2844 20.6913C36.704 20.8939 37.1742 21.0075 37.6705 21.0075C39.3664 21.0075 40.7575 19.6806 40.862 18.0106C41.2809 18.2125 41.7504 18.3258 42.2458 18.3258C44.0094 18.3258 45.4442 16.891 45.4442 15.1274V8.5531C45.4442 6.78951 44.0094 5.35477 42.2458 5.35477ZM39.0474 17.8091C39.0474 18.5683 38.4298 19.186 37.6706 19.186C36.9113 19.186 36.2937 18.5683 36.2937 17.8091V5.87143C36.2937 5.1122 36.9113 4.49456 37.6706 4.49456C38.4298 4.49456 39.0474 5.1122 39.0474 5.87143V17.8091ZM42.2458 16.5042C43.0049 16.5042 43.6226 15.8865 43.6226 15.1274V8.5531C43.6226 7.79399 43.0049 7.17635 42.2458 7.17635C41.4866 7.17635 40.869 7.79399 40.869 8.5531V15.1274C40.869 15.8865 41.4866 16.5042 42.2458 16.5042Z" fill="#EE4D64"/>
<path fill-rule="evenodd" clip-rule="evenodd" d="M14.9575 14.2474C14.4545 14.2474 14.0467 14.6552 14.0467 15.1582V20.4599C14.0467 21.2192 13.4291 21.8368 12.6698 21.8368C11.9106 21.8368 11.293 21.2192 11.293 20.4599V17.8091V5.87143V3.22061C11.293 2.46137 11.9106 1.84374 12.6698 1.84374C13.4291 1.84374 14.0467 2.46137 14.0467 3.22061V8.52232C14.0467 9.02532 14.4545 9.43311 14.9575 9.43311H27.2419C27.7449 9.43311 28.1527 9.02532 28.1527 8.52232C28.1527 8.01932 27.7449 7.61153 27.2419 7.61153H15.8683V3.22061C15.8683 1.45695 14.4335 0.0221558 12.6698 0.0221558C10.9841 0.0221558 9.59975 1.33333 9.48068 2.98921C9.06111 2.78659 8.59083 2.67298 8.09451 2.67298C6.39862 2.67298 5.00748 3.99994 4.90305 5.6699C4.48408 5.46801 4.01466 5.35477 3.51925 5.35477C1.7556 5.35477 0.320801 6.78957 0.320801 8.55322V15.1274C0.320801 16.891 1.7556 18.3257 3.51925 18.3257C4.01466 18.3257 4.48408 18.2125 4.90305 18.0106C5.00748 19.6806 6.39862 21.0075 8.09451 21.0075C8.59083 21.0075 9.06105 20.8939 9.48068 20.6913C9.59975 22.3471 10.9841 23.6583 12.6698 23.6583C14.4335 23.6583 15.8683 22.2235 15.8683 20.4599V15.1581C15.8683 14.6552 15.4606 14.2474 14.9575 14.2474ZM3.51937 16.5042C2.7602 16.5042 2.1425 15.8865 2.1425 15.1274V8.55322C2.1425 7.79399 2.76014 7.17635 3.51937 7.17635C4.27855 7.17635 4.89618 7.79399 4.89618 8.55322V15.1274C4.89612 15.8865 4.27849 16.5042 3.51937 16.5042ZM6.7177 17.8091C6.7177 18.5683 7.3354 19.186 8.09458 19.186C8.85381 19.186 9.47145 18.5683 9.47145 17.8091V5.87143C9.47145 5.1122 8.85381 4.49456 8.09458 4.49456C7.33534 4.49456 6.7177 5.1122 6.7177 5.87143V17.8091Z" fill="#EE4D64"/>
<path d="M14.0442 11.8935V12.1988C14.0442 12.7018 14.452 13.1096 14.955 13.1096C15.458 13.1096 15.8658 12.7018 15.8658 12.1988V11.8935C15.8658 11.3905 15.458 10.9827 14.955 10.9827C14.452 10.9827 14.0442 11.3905 14.0442 11.8935Z" fill="#EE4D64"/>
<path d="M31.7186 11.7922V11.4868C31.7186 10.9838 31.3107 10.576 30.8078 10.576C30.3047 10.576 29.897 10.9838 29.897 11.4868V11.7922C29.897 12.2952 30.3047 12.703 30.8078 12.703C31.3108 12.703 31.7186 12.2952 31.7186 11.7922Z" fill="#EE4D64"/>
</svg>
